<?xml version="1.0" encoding="utf-8"?>
<!-- Generator: Adobe Illustrator 24.0.0, SVG Export Plug-In . SVG Version: 6.00 Build 0)  -->
<svg version="1.1" xmlns="http://www.w3.org/2000/svg" xmlns:xlink="http://www.w3.org/1999/xlink" x="0px" y="0px"
	 viewBox="0 0 500 500" style="enable-background:new 0 0 500 500;" xml:space="preserve">
<style type="text/css">
	.st0{fill:#FFFF00;}
	.st1{fill:#E2FFB4;}
	.st2{fill:#402232;}
	.st3{fill:#88E8F2;}
</style>
<g id="Calque_2">
</g>
<g id="Calque_1">
	<rect y="-0.5" width="500" height="500"/>
	<path class="st0" d="M-881-81.5"/>
	<polygon class="st1" points="323.9,342.6 323.9,283.5 295.3,283.5 294.2,342.6 238,342.6 277.3,261.5 278.7,258.5 295.3,224.4 
		264.4,224.4 259.8,234.1 213,173.5 275,89.5 243,89.5 184,171.5 184,89.5 157,89.5 157,261.5 184,261.5 184,178.5 246.9,261.4 
		195,371 295.3,371 295.3,411.5 323.9,411.5 323.9,371 343.8,371 343.8,342.6 	"/>
	<rect x="935" y="0.5" class="st2" width="500" height="500"/>
	<polygon class="st3" points="1258.9,343.6 1258.9,284.5 1230.3,284.5 1229.2,343.6 1173,343.6 1212.3,262.5 1213.7,259.5 
		1230.3,225.4 1199.4,225.4 1194.8,235.1 1148,174.5 1210,90.5 1178,90.5 1119,172.5 1119,90.5 1092,90.5 1092,262.5 1119,262.5 
		1119,179.5 1181.9,262.4 1130,372 1230.3,372 1230.3,412.5 1258.9,412.5 1258.9,372 1278.8,372 1278.8,343.6 	"/>
	
		<image style="overflow:visible;" width="2480" height="1040" xlink:href="../../../../Downloads/AdobeColor-Hua-Lu Bridge.jpeg"  transform="matrix(0.7008 0 0 0.476 437 -701.5)">
	</image>
</g>
</svg>
